# xmcd
#
# Track frame offsets: 
#        150
#        27456
#        41793
#        60293
#        82609
#        98045
#        106187
#        114594
#        130191
#        177529
#        192972
#
# Disc length: 3112 seconds
#
# Revision: 2
# Processed by: cddbd v1.5.2PL0 Copyright (c) Steve Scherf et al.
# Submitted via: ExactAudioCopy v0.99pb4
#
DISCID=870c260b
DTITLE=Europa - Originale - Siegfried
DYEAR=2006
DGENRE=Hörspiel
TTITLE0=Kampf mit dem Lindwurm
TTITLE1=Boshafte Zwerge
TTITLE2=Der Ruhm des Drachentöters
TTITLE3=Ein schwerer Traum
TTITLE4=Strahlende Schönheit
TTITLE5=Übermenschliche Kräfte
TTITLE6=Glück oder Tod
TTITLE7=Unter der Tarnkappe
TTITLE8=Göttlicher Segen
TTITLE9=Das Gold der Nibelungen
TTITLE10=Übermächtiger Schmerz
EXTD=YEAR: 2006
EXTT0=
EXTT1=
EXTT2=
EXTT3=
EXTT4=
EXTT5=
EXTT6=
EXTT7=
EXTT8=
EXTT9=
EXTT10=
PLAYORDER=
